<svg id="Layer_1" xmlns="http://www.w3.org/2000/svg" viewBox="0 0 1000 260.5"><style>.st0{fill:#8DC63F;} .st1{fill-rule:evenodd;clip-rule:evenodd;fill:#8DC63F;} .st2{fill:#949CA1;} .st3{fill-rule:evenodd;clip-rule:evenodd;fill:#949CA1;}</style><path class="st0" d="M213.7 192.1h-33.5v-76.3c0-1.9-.3-4.2-.8-7s-1.6-5.5-3.3-8.2c-1.7-2.7-4.1-5-7.3-6.8-3.2-1.9-7.6-2.8-13.2-2.8-7.4 0-13.5 2.3-18.2 6.8-4.7 4.6-7.1 10.6-7.1 18v76.3H96.9v-76.3c0-1.9-.3-4.2-.8-7s-1.6-5.5-3.2-8.2c-1.6-2.7-4-5-7.2-6.8-3.2-1.9-7.6-2.8-13.2-2.8-7.6 0-13.7 2.3-18.4 6.8-4.6 4.6-7 10.6-7 18v76.3H13.7v-75.5c0-8.3 1.4-16 4.2-23.1 2.8-7.1 6.7-13.3 11.8-18.5 5.1-5.2 11.2-9.3 18.5-12.3 7.3-3 15.4-4.4 24.3-4.4 9 0 16.9 1.6 23.9 4.9 7 3.3 12.9 7.8 17.6 13.6 4.9-5.7 10.9-10.3 18-13.6 7.1-3.3 15-4.9 23.6-4.9 9.1 0 17.3 1.4 24.5 4.3 7.2 2.9 13.3 6.9 18.2 12 5 5.2 8.8 11.3 11.4 18.4 2.6 7.1 3.9 15 3.9 23.6v75.5h.1z"/><path class="st1" d="M293.3 164.5c4.4 0 8.6-.9 12.5-2.7 3.9-1.8 7.3-4.3 10.3-7.6 3-3.3 5.3-7.2 7-11.8 1.7-4.6 2.5-9.6 2.5-15.2s-.8-10.7-2.5-15.5c-1.7-4.7-4-8.8-7-12.2-3-3.4-6.4-6-10.3-7.9-3.9-1.9-8.1-2.8-12.5-2.8s-8.6.9-12.6 2.8-7.4 4.5-10.3 7.9c-2.9 3.4-5.2 7.4-6.9 12.2-1.7 4.7-2.5 9.9-2.5 15.5s.8 10.6 2.5 15.2 4 8.5 6.9 11.8c2.9 3.3 6.3 5.8 10.3 7.6 4 1.8 8.2 2.7 12.6 2.7zm-.1-106.2c9.1 0 17.7 1.7 25.6 5.2 7.9 3.5 14.9 8.3 20.9 14.4 6 6.2 10.7 13.4 14.2 21.8s5.2 17.4 5.2 27.2-1.7 18.8-5.2 27.1-8.2 15.5-14.2 21.5c-6 6.1-13 10.9-20.9 14.3-7.9 3.5-16.5 5.2-25.6 5.2-9.1 0-17.7-1.7-25.6-5.2-7.9-3.5-14.9-8.2-20.8-14.3-5.9-6.1-10.6-13.3-14.1-21.5-3.5-8.3-5.2-17.3-5.2-27.1s1.7-18.9 5.2-27.2c3.5-8.4 8.2-15.6 14.1-21.8 5.9-6.2 12.8-11 20.8-14.4 7.9-3.5 16.5-5.2 25.6-5.2zM476.2 127.2c0-5.4-.9-10.4-2.7-15-1.8-4.6-4.2-8.5-7.3-11.9-3.1-3.4-6.6-6-10.7-7.9-4.1-1.9-8.4-2.8-13-2.8s-8.9 1-13 2.9-7.6 4.6-10.7 8c-3.1 3.4-5.5 7.3-7.3 11.9-1.8 4.6-2.7 9.5-2.7 14.7 0 5.1.9 9.8 2.7 14.3 1.8 4.5 4.2 8.4 7.3 11.7 3.1 3.3 6.6 5.9 10.7 7.9 4.1 1.9 8.4 2.9 13 2.9s8.9-.9 13-2.8 7.6-4.4 10.7-7.7c3.1-3.3 5.5-7.2 7.3-11.7 1.8-4.4 2.7-9.2 2.7-14.5zm33.5-.3c0 9.5-1.6 18.4-4.9 26.7-3.3 8.3-7.9 15.5-13.8 21.7-5.9 6.2-13 11-21.2 14.6-8.2 3.6-17.2 5.3-27 5.3-10 0-19-1.8-27.2-5.3s-15.2-8.4-21.2-14.6c-5.9-6.2-10.5-13.4-13.8-21.7-3.3-8.3-4.9-17.1-4.9-26.6V3.6h33.5l.3 70.3c4.9-5.3 10.6-9.2 17-11.6 6.4-2.5 13.4-3.7 21-3.7 8.6 0 16.7 1.8 24.3 5.3 7.6 3.6 14.2 8.5 19.8 14.7 5.6 6.3 10 13.5 13.3 21.8s4.8 17.2 4.8 26.5z"/><path class="st2" d="M562.8 192.1h-33.5V61.6h33.5v130.5zM668.6 192.1h-36L583.2 61.6h34.9l32.5 97.3 32.6-97.3h34.5l-49.1 130.5zM771.3 192.1h-33.4V61.6h33.4v130.5z"/><path class="st0" d="M852.6 191.9c-9.6 1-18.1.4-25.3-1.8-7.3-2.2-13.3-5.7-18.2-10.6-4.9-4.9-8.6-10.9-11.2-18.1-2.5-7.2-3.8-15.2-3.8-24.2V28.4h33.5v33.2h23.6v29.6h-23.6v46.1c0 9.1 2.1 15.5 6.2 19.3 4.1 3.7 10.4 5.3 18.9 4.8v30.5h-.1zM986.3 197.4c0 8.8-1.4 16.8-4.2 23.9-2.8 7.2-6.7 13.3-11.8 18.5-5.1 5.2-11.2 9.1-18.2 11.9-7.1 2.8-15 4.2-23.8 4.2-7.1 0-13.9-1.1-20.3-3.3-6.4-2.2-12.1-5.3-17.1-9.4-5-4.1-9.2-8.9-12.5-14.4-3.4-5.6-5.7-11.7-6.8-18.5h34.7c1 4.9 3.5 8.5 7.5 10.9 4 2.4 8.8 3.5 14.6 3.5 4.6 0 8.4-.7 11.5-2.2 3.1-1.4 5.7-3.4 7.6-5.8s3.3-5.2 4.2-8.1c.8-3 1.3-6 1.3-9v-15.2c-3.9 3.4-8.4 6-13.4 7.9-5.1 1.9-10.6 2.8-16.5 2.8-7.9 0-15.2-1.4-21.8-4.2-6.6-2.8-12.2-6.7-16.9-11.7-4.6-5-8.2-11-10.8-18-2.5-7-3.8-14.8-3.8-23.4V61.6h33.5v76.3c0 1.9.3 4.2.8 7.1.5 2.9 1.6 5.7 3.3 8.5 1.7 2.8 4.1 5.2 7.3 7.1 3.2 1.9 7.5 2.9 12.9 2.9 7.6 0 13.7-2.4 18.4-7.2 4.6-4.8 7-10.9 7-18.4V61.6h33.5v135.8h-.2z"/><path class="st2" d="M575.3 23.5c0-9.1 7.4-16.5 16.5-16.5s16.5 7.4 16.5 16.5S600.9 40 591.8 40c-9.2 0-16.5-7.4-16.5-16.5zM529.3 23.5c0-9.1 7.4-16.5 16.5-16.5s16.5 7.4 16.5 16.5S554.9 40 545.8 40s-16.5-7.4-16.5-16.5zM690.3 23.5c0-9.1 7.4-16.5 16.5-16.5s16.5 7.4 16.5 16.5S715.9 40 706.8 40c-9.2 0-16.5-7.4-16.5-16.5zM738.4 23.5c0-9.1 7.4-16.5 16.5-16.5s16.5 7.4 16.5 16.5S764 40 754.9 40s-16.5-7.4-16.5-16.5z"/><path class="st3" d="M66.1 236.4c0-4.5-1.3-8.1-3.8-10.8-2.5-2.7-6-4.1-10.6-4.1-2.2 0-4.1.4-5.9 1.3-1.7.8-3.2 2-4.4 3.5-1.2-1.5-2.7-2.7-4.4-3.5-1.7-.8-3.6-1.3-5.8-1.3-1.8 0-3.5.4-5 1.1-1.5.7-2.7 1.7-3.8 3v-3.3H14v33.9h8.7v-19.8c0-1.9.6-3.5 1.8-4.8 1.2-1.2 2.7-1.9 4.7-1.9 1.9 0 3.3.5 4.2 1.3.9.8 1.5 1.8 1.8 2.8.3 1 .4 1.9.4 2.6v19.8h8.7v-19.8c0-1.9.6-3.5 1.8-4.8 1.2-1.2 2.8-1.9 4.7-1.9 1.9 0 3.2.5 4.2 1.3.9.8 1.5 1.8 1.8 2.8.3 1 .4 1.9.4 2.6v19.8h8.7v-19.8h.2zM87.5 221.4c-3.2 0-6 .8-8.6 2.4-2.6 1.5-4.6 3.7-6.1 6.3-1.5 2.7-2.3 5.7-2.3 9.1 0 3.4.8 6.4 2.3 9.1 1.5 2.7 3.6 4.7 6.1 6.3 2.6 1.5 5.4 2.3 8.6 2.3 3.2 0 6-.8 8.6-2.3 2.6-1.5 4.6-3.6 6.1-6.3 1.5-2.7 2.3-5.7 2.3-9.1 0-3.4-.8-6.4-2.3-9.1-1.5-2.7-3.6-4.8-6.1-6.3-2.6-1.5-5.4-2.3-8.6-2.4zm0 27.6c-2.4 0-4.3-.9-5.9-2.7-1.6-1.7-2.4-4.1-2.4-7 .1-3 .9-5.4 2.4-7.2 1.6-1.8 3.5-2.7 5.9-2.8 2.4 0 4.3 1 5.9 2.8 1.6 1.8 2.4 4.2 2.4 7.2-.1 2.9-.9 5.2-2.4 7-1.6 1.8-3.5 2.6-5.9 2.7zM128.3 221.6c-2.1-.3-4-.2-6 .5-1.9.7-3.6 1.8-5 3.5v-3.4H109v33.9h8.7v-16.6c0-1.4.1-2.7.4-4 .3-1.3.9-2.4 1.8-3.4 1-1 2.2-1.7 3.6-2 1.4-.3 3-.3 4.7-.1v-8.4h.1zM163.9 242.6c.4-4.5-.2-8.3-1.6-11.5-1.5-3.2-3.5-5.6-6.3-7.2-2.7-1.7-5.8-2.5-9.1-2.5-3.2 0-6.1.9-8.7 2.4-2.6 1.6-4.7 3.7-6.2 6.4-1.6 2.7-2.3 5.7-2.4 9 0 3.3.8 6.3 2.4 8.9 1.6 2.7 3.6 4.8 6.2 6.3 2.6 1.6 5.5 2.4 8.7 2.4 4.2-.1 7.8-1.1 10.6-3.2s4.8-4.9 5.8-8.4H154c-.8 1.3-1.8 2.3-3 3-1.3.6-2.7 1-4.1 1-2.1 0-3.9-.6-5.4-1.8-1.5-1.2-2.5-2.8-3.1-4.9h25.5v.1zm-25.5-7.1c.6-2 1.7-3.6 3.2-4.7 1.5-1.1 3.2-1.7 5.2-1.7 2.1 0 3.9.6 5.4 1.7 1.5 1.1 2.5 2.7 3.1 4.7h-16.9z"/><path class="st2" d="M219.5 244.7h-9.3c-.6 1.2-1.5 2.2-2.8 3.1-1.3.8-2.7 1.2-4.3 1.3-2.5-.1-4.5-1-6.1-2.9-1.6-1.8-2.5-4.1-2.5-6.9.1-2.8.9-5.1 2.5-7 1.6-1.9 3.7-2.8 6.1-2.9 1.6 0 3 .5 4.3 1.3 1.2.8 2.2 1.8 2.8 3h9.3c-1-3.8-3-6.8-5.8-9-2.9-2.1-6.3-3.2-10.5-3.3-3.4 0-6.4.9-9.1 2.4-2.6 1.6-4.7 3.7-6.2 6.4s-2.2 5.7-2.3 9c0 3.3.8 6.3 2.3 8.9 1.5 2.7 3.5 4.8 6.2 6.3 2.6 1.6 5.6 2.4 9.1 2.4 4.2 0 7.7-1.1 10.5-3.2 2.8-2 4.7-5 5.8-8.9z"/><path class="st3" d="M253.3 222.3h-8.7v19.8c0 1.9-.6 3.5-1.8 4.7-1.2 1.2-2.8 1.9-4.7 1.9-1.9 0-3.2-.5-4.2-1.3-.9-.8-1.5-1.7-1.8-2.8-.3-1-.4-1.9-.4-2.6v-19.8H223V242c.1 4.5 1.3 8.1 3.7 10.8 2.4 2.7 5.6 4 9.7 4.1 1.8 0 3.4-.4 4.9-1 1.5-.7 2.7-1.6 3.8-2.9v3.1h8.3v-33.8h-.1z"/><path class="st2" d="M288.4 245.5c-.1-3.6-1.4-6.1-4.1-7.5-2.6-1.4-6.1-2.5-10.4-3.1-2.1-.3-3.8-.7-4.9-1.1-1.2-.4-1.8-1.1-1.8-1.9 0-.7.4-1.3 1.3-1.8.9-.6 2.3-.8 4.3-.9 1.6 0 2.9.3 3.8.8.9.5 1.6 1.2 1.8 2h9c-.6-3.2-2.2-5.8-4.8-7.7-2.6-1.9-5.9-2.9-9.8-2.9-3.3 0-6 .6-8.1 1.6-2.1 1.1-3.7 2.4-4.8 4-1.1 1.6-1.6 3.4-1.6 5.2.1 2.5.8 4.4 2.3 5.8 1.5 1.4 3.3 2.4 5.5 3 2.2.6 4.3 1.1 6.4 1.4 2.9.4 4.8.9 5.8 1.4 1 .5 1.4 1.3 1.3 2.2 0 1-.6 1.7-1.8 2.3-1.1.5-2.6.8-4.4.8-1.3 0-2.7-.3-4.1-.9-1.4-.6-2.4-1.6-3.1-3.1h-8.8c.6 3.7 2.3 6.6 5.2 8.7 2.9 2.1 6.5 3.1 10.9 3.2 4.4-.1 8-1.1 10.7-3.2 2.7-2.1 4.1-4.9 4.2-8.3zM309.5 248.2c-2.2.2-3.8-.3-4.9-1.2-1.1-1-1.6-2.6-1.6-5v-12h6.1v-7.7H303v-8.6h-8.7v8.6h-4.1v7.7h4.1v11.9c0 4.7 1.3 8.4 3.9 11 2.6 2.6 6.3 3.7 11.3 3.2v-7.9z"/><path class="st3" d="M328.9 221.4c-3.2 0-6 .8-8.6 2.4-2.6 1.5-4.6 3.7-6.1 6.3-1.5 2.7-2.3 5.7-2.3 9.1 0 3.4.8 6.4 2.3 9.1 1.5 2.7 3.6 4.7 6.1 6.3 2.6 1.5 5.4 2.3 8.6 2.3 3.2 0 6-.8 8.6-2.3 2.6-1.5 4.6-3.6 6.1-6.3 1.5-2.7 2.3-5.7 2.3-9.1 0-3.4-.8-6.4-2.3-9.1-1.5-2.7-3.6-4.8-6.1-6.3-2.5-1.5-5.4-2.3-8.6-2.4zm0 27.6c-2.4 0-4.3-.9-5.9-2.7s-2.4-4.1-2.4-7c.1-3 .9-5.4 2.4-7.2 1.6-1.8 3.5-2.7 5.9-2.8 2.4 0 4.3 1 5.9 2.8 1.6 1.8 2.4 4.2 2.4 7.2-.1 2.9-.9 5.2-2.4 7s-3.5 2.6-5.9 2.7zM402.4 236.4c0-4.5-1.3-8.1-3.8-10.8-2.5-2.7-6-4.1-10.6-4.1-2.2 0-4.1.4-5.9 1.3-1.7.8-3.2 2-4.4 3.5-1.2-1.5-2.7-2.7-4.4-3.5-1.7-.8-3.6-1.3-5.8-1.3-1.8 0-3.5.4-5 1.1-1.5.7-2.7 1.7-3.8 3v-3.3h-8.4v33.9h8.7v-19.8c0-1.9.6-3.5 1.8-4.8 1.2-1.2 2.7-1.9 4.7-1.9 1.9 0 3.3.5 4.2 1.3.9.8 1.5 1.8 1.8 2.8.3 1 .4 1.9.4 2.6v19.8h8.7v-19.8c0-1.9.6-3.5 1.8-4.8 1.2-1.2 2.8-1.9 4.7-1.9 1.9 0 3.2.5 4.2 1.3.9.8 1.5 1.8 1.8 2.8.3 1 .4 1.9.4 2.6v19.8h8.7v-19.8h.2zM441.2 242.6c.4-4.5-.2-8.3-1.6-11.5-1.5-3.2-3.5-5.6-6.3-7.2-2.7-1.7-5.8-2.5-9.1-2.5-3.2 0-6.1.9-8.7 2.4-2.6 1.6-4.7 3.7-6.2 6.4-1.6 2.7-2.3 5.7-2.4 9 0 3.3.8 6.3 2.4 8.9 1.6 2.7 3.6 4.8 6.2 6.3 2.6 1.6 5.5 2.4 8.7 2.4 4.2-.1 7.8-1.1 10.6-3.2s4.8-4.9 5.8-8.4h-9.3c-.8 1.3-1.8 2.3-3 3-1.3.6-2.7 1-4.1 1-2.1 0-3.9-.6-5.4-1.8-1.5-1.2-2.5-2.8-3.1-4.9h25.5v.1zm-25.4-7.1c.6-2 1.7-3.6 3.2-4.7 1.5-1.1 3.2-1.7 5.2-1.7 2.1 0 3.9.6 5.4 1.7 1.5 1.1 2.5 2.7 3.1 4.7h-16.9zM465.1 221.6c-2.1-.3-4.1-.2-6 .5-1.9.7-3.6 1.8-5 3.5v-3.4h-8.3v33.9h8.7v-16.6c0-1.4.1-2.7.4-4 .3-1.3.9-2.4 1.8-3.4 1-1 2.2-1.7 3.6-2 1.4-.3 3-.3 4.7-.1v-8.4h.1z"/><path class="st2" d="M497.1 245.5c-.1-3.6-1.4-6.1-4.1-7.5-2.6-1.4-6.1-2.5-10.4-3.1-2.1-.3-3.8-.7-4.9-1.1-1.2-.4-1.8-1.1-1.8-1.9 0-.7.4-1.3 1.3-1.8.9-.6 2.3-.8 4.3-.9 1.6 0 2.9.3 3.8.8.9.5 1.6 1.2 1.8 2h9c-.6-3.2-2.2-5.8-4.8-7.7-2.6-1.9-5.9-2.9-9.8-2.9-3.3 0-6 .6-8.1 1.6-2.1 1.1-3.7 2.4-4.8 4-1.1 1.6-1.6 3.4-1.6 5.2.1 2.5.8 4.4 2.3 5.8 1.5 1.4 3.3 2.4 5.5 3 2.2.6 4.3 1.1 6.4 1.4 2.9.4 4.8.9 5.8 1.4 1 .5 1.4 1.3 1.3 2.2 0 1-.6 1.7-1.8 2.3-1.1.5-2.6.8-4.4.8-1.3 0-2.7-.3-4.1-.9-1.4-.6-2.4-1.6-3.1-3.1h-8.8c.6 3.7 2.3 6.6 5.2 8.7 2.9 2.1 6.5 3.1 10.9 3.2 4.4-.1 8-1.1 10.7-3.2 2.8-2.1 4.1-4.9 4.2-8.3zM510.2 246.9h-9.3v9.3h9.3v-9.3z"/><path class="st3" d="M586.7 236.4c0-4.5-1.3-8.1-3.8-10.8-2.5-2.7-6-4.1-10.6-4.1-2.2 0-4.1.4-5.9 1.3-1.7.8-3.2 2-4.4 3.5-1.2-1.5-2.7-2.7-4.4-3.5-1.7-.8-3.6-1.3-5.8-1.3-1.8 0-3.5.4-5 1.1-1.5.7-2.7 1.7-3.8 3v-3.3h-8.4v33.9h8.7v-19.8c0-1.9.6-3.5 1.8-4.8 1.2-1.2 2.7-1.9 4.7-1.9 1.9 0 3.3.5 4.2 1.3.9.8 1.5 1.8 1.8 2.8.3 1 .4 1.9.4 2.6v19.8h8.7v-19.8c0-1.9.6-3.5 1.8-4.8 1.2-1.2 2.8-1.9 4.7-1.9 1.9 0 3.2.5 4.2 1.3.9.8 1.5 1.8 1.8 2.8.3 1 .4 1.9.4 2.6v19.8h8.7v-19.8h.2zM608.1 221.4c-3.2 0-6 .8-8.6 2.4-2.6 1.5-4.6 3.7-6.1 6.3-1.5 2.7-2.3 5.7-2.3 9.1 0 3.4.8 6.4 2.3 9.1 1.5 2.7 3.6 4.7 6.1 6.3 2.6 1.5 5.4 2.3 8.6 2.3 3.2 0 6-.8 8.6-2.3 2.6-1.5 4.6-3.6 6.1-6.3 1.5-2.7 2.3-5.7 2.3-9.1 0-3.4-.8-6.4-2.3-9.1-1.5-2.7-3.6-4.8-6.1-6.3-2.5-1.5-5.4-2.3-8.6-2.4zm0 27.6c-2.4 0-4.3-.9-5.9-2.7-1.6-1.7-2.4-4.1-2.4-7 .1-3 .9-5.4 2.4-7.2 1.6-1.8 3.5-2.7 5.9-2.8 2.4 0 4.3 1 5.9 2.8 1.6 1.8 2.4 4.2 2.4 7.2-.1 2.9-.9 5.2-2.4 7-1.5 1.8-3.5 2.6-5.9 2.7zM649 221.6c-2.1-.3-4-.2-6 .5-1.9.7-3.6 1.8-5 3.5v-3.4h-8.3v33.9h8.7v-16.6c0-1.4.1-2.7.4-4 .3-1.3.9-2.4 1.8-3.4 1-1 2.2-1.7 3.6-2 1.4-.3 3-.3 4.7-.1v-8.4h.1zM684.5 242.6c.4-4.5-.2-8.3-1.6-11.5-1.5-3.2-3.5-5.6-6.3-7.2-2.7-1.7-5.8-2.5-9.1-2.5-3.2 0-6.1.9-8.7 2.4-2.6 1.6-4.7 3.7-6.2 6.4-1.6 2.7-2.3 5.7-2.4 9 0 3.3.8 6.3 2.4 8.9 1.6 2.7 3.6 4.8 6.2 6.3 2.6 1.6 5.5 2.4 8.7 2.4 4.2-.1 7.8-1.1 10.6-3.2s4.8-4.9 5.8-8.4h-9.3c-.8 1.3-1.8 2.3-3 3-1.3.6-2.7 1-4.1 1-2.1 0-3.9-.6-5.4-1.8-1.5-1.2-2.5-2.8-3.1-4.9h25.5v.1zm-25.5-7.1c.6-2 1.7-3.6 3.2-4.7 1.5-1.1 3.2-1.7 5.2-1.7 2.1 0 3.9.6 5.4 1.7 1.5 1.1 2.5 2.7 3.1 4.7H659zM723.3 221.4c-3.2 0-6 .8-8.6 2.4-2.6 1.5-4.6 3.7-6.1 6.3-1.5 2.7-2.3 5.7-2.3 9.1 0 3.4.8 6.4 2.3 9.1 1.5 2.7 3.6 4.7 6.1 6.3 2.6 1.5 5.4 2.3 8.6 2.3 3.2 0 6-.8 8.6-2.3 2.6-1.5 4.6-3.6 6.1-6.3 1.5-2.7 2.3-5.7 2.3-9.1 0-3.4-.8-6.4-2.3-9.1-1.5-2.7-3.6-4.8-6.1-6.3-2.6-1.5-5.4-2.3-8.6-2.4zm0 27.6c-2.4 0-4.3-.9-5.9-2.7-1.6-1.7-2.4-4.1-2.4-7 .1-3 .9-5.4 2.4-7.2 1.6-1.8 3.5-2.7 5.9-2.8 2.4 0 4.3 1 5.9 2.8 1.6 1.8 2.4 4.2 2.4 7.2-.1 2.9-.9 5.2-2.4 7-1.6 1.8-3.6 2.6-5.9 2.7z"/><path class="st2" d="M754.2 222.4c0-2.3.6-3.9 1.7-4.9 1.1-1 2.7-1.3 4.8-1.2v-8.2c-3.2-.3-6 .1-8.2 1.2-2.2 1.2-3.9 2.9-5.1 5.1-1.2 2.3-1.8 4.9-1.8 7.8h-4.1v7.7h4.1v26h8.7v-26h6.1v-7.7h-6.2v.2zM781.1 248.2c-2.2.2-3.8-.3-4.9-1.2-1.1-1-1.6-2.6-1.6-5v-12h6.1v-7.7h-6.1v-8.6h-8.7v8.6h-4.1v7.7h4.1v11.9c0 4.7 1.3 8.4 3.9 11 2.6 2.6 6.3 3.7 11.3 3.2v-7.9z"/><path class="st3" d="M817.9 242.6c.4-4.5-.2-8.3-1.6-11.5-1.5-3.2-3.5-5.6-6.3-7.2-2.7-1.7-5.8-2.5-9.1-2.5-3.2 0-6.1.9-8.7 2.4-2.6 1.6-4.7 3.7-6.2 6.4-1.6 2.7-2.3 5.7-2.4 9 0 3.3.8 6.3 2.4 8.9 1.6 2.7 3.6 4.8 6.2 6.3 2.6 1.6 5.5 2.4 8.7 2.4 4.2-.1 7.8-1.1 10.6-3.2s4.8-4.9 5.8-8.4H808c-.8 1.3-1.8 2.3-3 3-1.3.6-2.7 1-4.1 1-2.1 0-3.9-.6-5.4-1.8-1.5-1.2-2.5-2.8-3.1-4.9h25.5v.1zm-25.4-7.1c.6-2 1.7-3.6 3.2-4.7 1.5-1.1 3.2-1.7 5.2-1.7 2.1 0 3.9.6 5.4 1.7 1.5 1.1 2.5 2.7 3.1 4.7h-16.9zM852.9 236.4c-.1-4.5-1.3-8.1-3.6-10.8-2.4-2.7-5.6-4-9.6-4.1-1.8 0-3.4.4-4.9 1.1-1.5.7-2.7 1.7-3.8 3v-3.3h-8.3v33.9h8.7v-19.8c0-1.9.6-3.5 1.8-4.8 1.2-1.2 2.8-1.9 4.7-1.9 1.9 0 3.3.5 4.2 1.3.9.8 1.5 1.8 1.8 2.8.3 1 .4 1.9.4 2.6v19.8h8.7v-19.8h-.1z"/><path class="st2" d="M867.8 246.9h-9.4v9.3h9.4v-9.3z"/></svg>