<?xml version="1.0" encoding="utf-8"?>
<!-- Generator: Adobe Illustrator 19.1.0, SVG Export Plug-In . SVG Version: 6.00 Build 0)  -->
<svg version="1.1" id="Layer_1" xmlns="http://www.w3.org/2000/svg" xmlns:xlink="http://www.w3.org/1999/xlink" x="0px" y="0px"
	 viewBox="0 0 1000 260.5" style="enable-background:new 0 0 1000 260.5;" xml:space="preserve">
<style type="text/css">
	.st0{fill:#8DC63F;}
	.st1{fill-rule:evenodd;clip-rule:evenodd;fill:#8DC63F;}
	.st2{fill:#949CA1;}
	.st3{fill-rule:evenodd;clip-rule:evenodd;fill:#949CA1;}
</style>
<path class="st0" d="M213.7,192.1h-33.5v-76.3c0-1.9-0.3-4.2-0.8-7c-0.5-2.8-1.6-5.5-3.3-8.2c-1.7-2.7-4.1-5-7.3-6.8
	c-3.2-1.9-7.6-2.8-13.2-2.8c-7.4,0-13.5,2.3-18.2,6.8c-4.7,4.6-7.1,10.6-7.1,18v76.3H96.9v-76.3c0-1.9-0.3-4.2-0.8-7
	c-0.5-2.8-1.6-5.5-3.2-8.2c-1.6-2.7-4-5-7.2-6.8c-3.2-1.9-7.6-2.8-13.2-2.8c-7.6,0-13.7,2.3-18.4,6.8c-4.6,4.6-7,10.6-7,18v76.3
	H13.7v-75.5c0-8.3,1.4-16,4.2-23.1c2.8-7.1,6.7-13.3,11.8-18.5c5.1-5.2,11.2-9.3,18.5-12.3c7.3-3,15.4-4.4,24.3-4.4
	c9,0,16.9,1.6,23.9,4.9c7,3.3,12.9,7.8,17.6,13.6c4.9-5.7,10.9-10.3,18-13.6c7.1-3.3,15-4.9,23.6-4.9c9.1,0,17.3,1.4,24.5,4.3
	c7.2,2.9,13.3,6.9,18.2,12c5,5.2,8.8,11.3,11.4,18.4c2.6,7.1,3.9,15,3.9,23.6V192.1L213.7,192.1z"/>
<path class="st1" d="M293.3,164.5c4.4,0,8.6-0.9,12.5-2.7c3.9-1.8,7.3-4.3,10.3-7.6c3-3.3,5.3-7.2,7-11.8c1.7-4.6,2.5-9.6,2.5-15.2
	c0-5.6-0.8-10.7-2.5-15.5c-1.7-4.7-4-8.8-7-12.2c-3-3.4-6.4-6-10.3-7.9c-3.9-1.9-8.1-2.8-12.5-2.8c-4.4,0-8.6,0.9-12.6,2.8
	c-4,1.9-7.4,4.5-10.3,7.9c-2.9,3.4-5.2,7.4-6.9,12.2c-1.7,4.7-2.5,9.9-2.5,15.5c0,5.6,0.8,10.6,2.5,15.2c1.7,4.6,4,8.5,6.9,11.8
	c2.9,3.3,6.3,5.8,10.3,7.6C284.7,163.6,288.9,164.5,293.3,164.5L293.3,164.5z M293.2,58.3c9.1,0,17.7,1.7,25.6,5.2
	c7.9,3.5,14.9,8.3,20.9,14.4c6,6.2,10.7,13.4,14.2,21.8c3.5,8.4,5.2,17.4,5.2,27.2c0,9.8-1.7,18.8-5.2,27.1
	c-3.5,8.3-8.2,15.5-14.2,21.5c-6,6.1-13,10.9-20.9,14.3c-7.9,3.5-16.5,5.2-25.6,5.2c-9.1,0-17.7-1.7-25.6-5.2
	c-7.9-3.5-14.9-8.2-20.8-14.3c-5.9-6.1-10.6-13.3-14.1-21.5c-3.5-8.3-5.2-17.3-5.2-27.1c0-9.8,1.7-18.9,5.2-27.2
	c3.5-8.4,8.2-15.6,14.1-21.8c5.9-6.2,12.8-11,20.8-14.4C275.5,60,284.1,58.3,293.2,58.3L293.2,58.3z"/>
<path class="st1" d="M476.2,127.2c0-5.4-0.9-10.4-2.7-15c-1.8-4.6-4.2-8.5-7.3-11.9c-3.1-3.4-6.6-6-10.7-7.9
	c-4.1-1.9-8.4-2.8-13-2.8c-4.6,0-8.9,1-13,2.9c-4.1,1.9-7.6,4.6-10.7,8c-3.1,3.4-5.5,7.3-7.3,11.9c-1.8,4.6-2.7,9.5-2.7,14.7
	c0,5.1,0.9,9.8,2.7,14.3c1.8,4.5,4.2,8.4,7.3,11.7c3.1,3.3,6.6,5.9,10.7,7.9c4.1,1.9,8.4,2.9,13,2.9c4.6,0,8.9-0.9,13-2.8
	c4.1-1.9,7.6-4.4,10.7-7.7c3.1-3.3,5.5-7.2,7.3-11.7C475.3,137.3,476.2,132.5,476.2,127.2L476.2,127.2z M509.7,126.9
	c0,9.5-1.6,18.4-4.9,26.7c-3.3,8.3-7.9,15.5-13.8,21.7c-5.9,6.2-13,11-21.2,14.6c-8.2,3.6-17.2,5.3-27,5.3c-10,0-19-1.8-27.2-5.3
	c-8.2-3.5-15.2-8.4-21.2-14.6c-5.9-6.2-10.5-13.4-13.8-21.7c-3.3-8.3-4.9-17.1-4.9-26.6V3.6h33.5l0.3,70.3c4.9-5.3,10.6-9.2,17-11.6
	c6.4-2.5,13.4-3.7,21-3.7c8.6,0,16.7,1.8,24.3,5.3c7.6,3.6,14.2,8.5,19.8,14.7c5.6,6.3,10,13.5,13.3,21.8S509.7,117.6,509.7,126.9
	L509.7,126.9z"/>
<polygon class="st2" points="562.8,192.1 529.3,192.1 529.3,61.6 562.8,61.6 562.8,192.1 "/>
<polygon class="st2" points="668.6,192.1 632.6,192.1 583.2,61.6 618.1,61.6 650.6,158.9 683.2,61.6 717.7,61.6 668.6,192.1 "/>
<polygon class="st2" points="771.3,192.1 737.9,192.1 737.9,61.6 771.3,61.6 771.3,192.1 "/>
<path class="st0" d="M852.6,191.9c-9.6,1-18.1,0.4-25.3-1.8c-7.3-2.2-13.3-5.7-18.2-10.6c-4.9-4.9-8.6-10.9-11.2-18.1
	c-2.5-7.2-3.8-15.2-3.8-24.2V28.4h33.5v33.2h23.6v29.6h-23.6v46.1c0,9.1,2.1,15.5,6.2,19.3c4.1,3.7,10.4,5.3,18.9,4.8V191.9
	L852.6,191.9z"/>
<path class="st0" d="M986.3,197.4c0,8.8-1.4,16.8-4.2,23.9c-2.8,7.2-6.7,13.3-11.8,18.5c-5.1,5.2-11.2,9.1-18.2,11.9
	c-7.1,2.8-15,4.2-23.8,4.2c-7.1,0-13.9-1.1-20.3-3.3c-6.4-2.2-12.1-5.3-17.1-9.4c-5-4.1-9.2-8.9-12.5-14.4
	c-3.4-5.6-5.7-11.7-6.8-18.5h34.7c1,4.9,3.5,8.5,7.5,10.9c4,2.4,8.8,3.5,14.6,3.5c4.6,0,8.4-0.7,11.5-2.2c3.1-1.4,5.7-3.4,7.6-5.8
	s3.3-5.2,4.2-8.1c0.8-3,1.3-6,1.3-9v-15.2c-3.9,3.4-8.4,6-13.4,7.9c-5.1,1.9-10.6,2.8-16.5,2.8c-7.9,0-15.2-1.4-21.8-4.2
	c-6.6-2.8-12.2-6.7-16.9-11.7c-4.6-5-8.2-11-10.8-18c-2.5-7-3.8-14.8-3.8-23.4V61.6h33.5v76.3c0,1.9,0.3,4.2,0.8,7.1
	c0.5,2.9,1.6,5.7,3.3,8.5c1.7,2.8,4.1,5.2,7.3,7.1c3.2,1.9,7.5,2.9,12.9,2.9c7.6,0,13.7-2.4,18.4-7.2c4.6-4.8,7-10.9,7-18.4V61.6
	h33.5V197.4L986.3,197.4z"/>
<path class="st2" d="M575.3,23.5c0-9.1,7.4-16.5,16.5-16.5c9.1,0,16.5,7.4,16.5,16.5c0,9.1-7.4,16.5-16.5,16.5
	C582.6,40,575.3,32.6,575.3,23.5L575.3,23.5z"/>
<path class="st2" d="M529.3,23.5c0-9.1,7.4-16.5,16.5-16.5c9.1,0,16.5,7.4,16.5,16.5c0,9.1-7.4,16.5-16.5,16.5
	C536.7,40,529.3,32.6,529.3,23.5L529.3,23.5z"/>
<path class="st2" d="M690.3,23.5c0-9.1,7.4-16.5,16.5-16.5c9.1,0,16.5,7.4,16.5,16.5c0,9.1-7.4,16.5-16.5,16.5
	C697.6,40,690.3,32.6,690.3,23.5L690.3,23.5z"/>
<path class="st2" d="M738.4,23.5c0-9.1,7.4-16.5,16.5-16.5s16.5,7.4,16.5,16.5c0,9.1-7.4,16.5-16.5,16.5S738.4,32.6,738.4,23.5
	L738.4,23.5z"/>
<path class="st3" d="M66.1,236.4c0-4.5-1.3-8.1-3.8-10.8c-2.5-2.7-6-4.1-10.6-4.1c-2.2,0-4.1,0.4-5.9,1.3c-1.7,0.8-3.2,2-4.4,3.5
	c-1.2-1.5-2.7-2.7-4.4-3.5c-1.7-0.8-3.6-1.3-5.8-1.3c-1.8,0-3.5,0.4-5,1.1c-1.5,0.7-2.7,1.7-3.8,3v-3.3h-8.4v33.9h8.7v-19.8
	c0-1.9,0.6-3.5,1.8-4.8c1.2-1.2,2.7-1.9,4.7-1.9c1.9,0,3.3,0.5,4.2,1.3c0.9,0.8,1.5,1.8,1.8,2.8c0.3,1,0.4,1.9,0.4,2.6v19.8h8.7
	v-19.8c0-1.9,0.6-3.5,1.8-4.8c1.2-1.2,2.8-1.9,4.7-1.9c1.9,0,3.2,0.5,4.2,1.3c0.9,0.8,1.5,1.8,1.8,2.8c0.3,1,0.4,1.9,0.4,2.6v19.8
	h8.7V236.4L66.1,236.4z"/>
<path class="st3" d="M87.5,221.4c-3.2,0-6,0.8-8.6,2.4c-2.6,1.5-4.6,3.7-6.1,6.3c-1.5,2.7-2.3,5.7-2.3,9.1c0,3.4,0.8,6.4,2.3,9.1
	c1.5,2.7,3.6,4.7,6.1,6.3c2.6,1.5,5.4,2.3,8.6,2.3c3.2,0,6-0.8,8.6-2.3c2.6-1.5,4.6-3.6,6.1-6.3c1.5-2.7,2.3-5.7,2.3-9.1
	c0-3.4-0.8-6.4-2.3-9.1c-1.5-2.7-3.6-4.8-6.1-6.3C93.5,222.3,90.7,221.5,87.5,221.4L87.5,221.4z M87.5,249c-2.4,0-4.3-0.9-5.9-2.7
	c-1.6-1.7-2.4-4.1-2.4-7c0.1-3,0.9-5.4,2.4-7.2c1.6-1.8,3.5-2.7,5.9-2.8c2.4,0,4.3,1,5.9,2.8c1.6,1.8,2.4,4.2,2.4,7.2
	c-0.1,2.9-0.9,5.2-2.4,7C91.8,248.1,89.9,248.9,87.5,249L87.5,249z"/>
<path class="st3" d="M128.3,221.6c-2.1-0.3-4-0.2-6,0.5c-1.9,0.7-3.6,1.8-5,3.5v-3.4h-8.3v33.9h8.7v-16.6c0-1.4,0.1-2.7,0.4-4
	c0.3-1.3,0.9-2.4,1.8-3.4c1-1,2.2-1.7,3.6-2c1.4-0.3,3-0.3,4.7-0.1V221.6L128.3,221.6z"/>
<path class="st3" d="M163.9,242.6c0.4-4.5-0.2-8.3-1.6-11.5c-1.5-3.2-3.5-5.6-6.3-7.2c-2.7-1.7-5.8-2.5-9.1-2.5
	c-3.2,0-6.1,0.9-8.7,2.4c-2.6,1.6-4.7,3.7-6.2,6.4c-1.6,2.7-2.3,5.7-2.4,9c0,3.3,0.8,6.3,2.4,8.9c1.6,2.7,3.6,4.8,6.2,6.3
	c2.6,1.6,5.5,2.4,8.7,2.4c4.2-0.1,7.8-1.1,10.6-3.2c2.8-2.1,4.8-4.9,5.8-8.4h-9.3c-0.8,1.3-1.8,2.3-3,3c-1.3,0.6-2.7,1-4.1,1
	c-2.1,0-3.9-0.6-5.4-1.8c-1.5-1.2-2.5-2.8-3.1-4.9H163.9L163.9,242.6z M138.4,235.5c0.6-2,1.7-3.6,3.2-4.7c1.5-1.1,3.2-1.7,5.2-1.7
	c2.1,0,3.9,0.6,5.4,1.7c1.5,1.1,2.5,2.7,3.1,4.7H138.4L138.4,235.5z"/>
<path class="st2" d="M219.5,244.7h-9.3c-0.6,1.2-1.5,2.2-2.8,3.1c-1.3,0.8-2.7,1.2-4.3,1.3c-2.5-0.1-4.5-1-6.1-2.9
	c-1.6-1.8-2.5-4.1-2.5-6.9c0.1-2.8,0.9-5.1,2.5-7c1.6-1.9,3.7-2.8,6.1-2.9c1.6,0,3,0.5,4.3,1.3c1.2,0.8,2.2,1.8,2.8,3h9.3
	c-1-3.8-3-6.8-5.8-9c-2.9-2.1-6.3-3.2-10.5-3.3c-3.4,0-6.4,0.9-9.1,2.4c-2.6,1.6-4.7,3.7-6.2,6.4c-1.5,2.7-2.2,5.7-2.3,9
	c0,3.3,0.8,6.3,2.3,8.9c1.5,2.7,3.5,4.8,6.2,6.3c2.6,1.6,5.6,2.4,9.1,2.4c4.2,0,7.7-1.1,10.5-3.2
	C216.5,251.6,218.4,248.6,219.5,244.7L219.5,244.7z"/>
<path class="st3" d="M253.3,222.3h-8.7v19.8c0,1.9-0.6,3.5-1.8,4.7c-1.2,1.2-2.8,1.9-4.7,1.9c-1.9,0-3.2-0.5-4.2-1.3
	c-0.9-0.8-1.5-1.7-1.8-2.8c-0.3-1-0.4-1.9-0.4-2.6v-19.8H223v19.8c0.1,4.5,1.3,8.1,3.7,10.8c2.4,2.7,5.6,4,9.7,4.1
	c1.8,0,3.4-0.4,4.9-1c1.5-0.7,2.7-1.6,3.8-2.9v3.1h8.3V222.3L253.3,222.3z"/>
<path class="st2" d="M288.4,245.5c-0.1-3.6-1.4-6.1-4.1-7.5c-2.6-1.4-6.1-2.5-10.4-3.1c-2.1-0.3-3.8-0.7-4.9-1.1
	c-1.2-0.4-1.8-1.1-1.8-1.9c0-0.7,0.4-1.3,1.3-1.8c0.9-0.6,2.3-0.8,4.3-0.9c1.6,0,2.9,0.3,3.8,0.8c0.9,0.5,1.6,1.2,1.8,2h9
	c-0.6-3.2-2.2-5.8-4.8-7.7c-2.6-1.9-5.9-2.9-9.8-2.9c-3.3,0-6,0.6-8.1,1.6c-2.1,1.1-3.7,2.4-4.8,4c-1.1,1.6-1.6,3.4-1.6,5.2
	c0.1,2.5,0.8,4.4,2.3,5.8c1.5,1.4,3.3,2.4,5.5,3c2.2,0.6,4.3,1.1,6.4,1.4c2.9,0.4,4.8,0.9,5.8,1.4c1,0.5,1.4,1.3,1.3,2.2
	c0,1-0.6,1.7-1.8,2.3c-1.1,0.5-2.6,0.8-4.4,0.8c-1.3,0-2.7-0.3-4.1-0.9c-1.4-0.6-2.4-1.6-3.1-3.1h-8.8c0.6,3.7,2.3,6.6,5.2,8.7
	c2.9,2.1,6.5,3.1,10.9,3.2c4.4-0.1,8-1.1,10.7-3.2C286.9,251.7,288.3,248.9,288.4,245.5L288.4,245.5z"/>
<path class="st2" d="M309.5,248.2c-2.2,0.2-3.8-0.3-4.9-1.2c-1.1-1-1.6-2.6-1.6-5v-12h6.1v-7.7h-6.1v-8.6h-8.7v8.6h-4.1v7.7h4.1
	v11.9c0,4.7,1.3,8.4,3.9,11c2.6,2.6,6.3,3.7,11.3,3.2V248.2L309.5,248.2z"/>
<path class="st3" d="M328.9,221.4c-3.2,0-6,0.8-8.6,2.4c-2.6,1.5-4.6,3.7-6.1,6.3c-1.5,2.7-2.3,5.7-2.3,9.1c0,3.4,0.8,6.4,2.3,9.1
	c1.5,2.7,3.6,4.7,6.1,6.3c2.6,1.5,5.4,2.3,8.6,2.3c3.2,0,6-0.8,8.6-2.3c2.6-1.5,4.6-3.6,6.1-6.3c1.5-2.7,2.3-5.7,2.3-9.1
	c0-3.4-0.8-6.4-2.3-9.1c-1.5-2.7-3.6-4.8-6.1-6.3C335,222.3,332.1,221.5,328.9,221.4L328.9,221.4z M328.9,249
	c-2.4,0-4.3-0.9-5.9-2.7s-2.4-4.1-2.4-7c0.1-3,0.9-5.4,2.4-7.2c1.6-1.8,3.5-2.7,5.9-2.8c2.4,0,4.3,1,5.9,2.8
	c1.6,1.8,2.4,4.2,2.4,7.2c-0.1,2.9-0.9,5.2-2.4,7S331.3,248.9,328.9,249L328.9,249z"/>
<path class="st3" d="M402.4,236.4c0-4.5-1.3-8.1-3.8-10.8c-2.5-2.7-6-4.1-10.6-4.1c-2.2,0-4.1,0.4-5.9,1.3c-1.7,0.8-3.2,2-4.4,3.5
	c-1.2-1.5-2.7-2.7-4.4-3.5c-1.7-0.8-3.6-1.3-5.8-1.3c-1.8,0-3.5,0.4-5,1.1c-1.5,0.7-2.7,1.7-3.8,3v-3.3h-8.4v33.9h8.7v-19.8
	c0-1.9,0.6-3.5,1.8-4.8c1.2-1.2,2.7-1.9,4.7-1.9c1.9,0,3.3,0.5,4.2,1.3c0.9,0.8,1.5,1.8,1.8,2.8c0.3,1,0.4,1.9,0.4,2.6v19.8h8.7
	v-19.8c0-1.9,0.6-3.5,1.8-4.8c1.2-1.2,2.8-1.9,4.7-1.9c1.9,0,3.2,0.5,4.2,1.3c0.9,0.8,1.5,1.8,1.8,2.8c0.3,1,0.4,1.9,0.4,2.6v19.8
	h8.7V236.4L402.4,236.4z"/>
<path class="st3" d="M441.2,242.6c0.4-4.5-0.2-8.3-1.6-11.5c-1.5-3.2-3.5-5.6-6.3-7.2c-2.7-1.7-5.8-2.5-9.1-2.5
	c-3.2,0-6.1,0.9-8.7,2.4c-2.6,1.6-4.7,3.7-6.2,6.4c-1.6,2.7-2.3,5.7-2.4,9c0,3.3,0.8,6.3,2.4,8.9c1.6,2.7,3.6,4.8,6.2,6.3
	c2.6,1.6,5.5,2.4,8.7,2.4c4.2-0.1,7.8-1.1,10.6-3.2c2.8-2.1,4.8-4.9,5.8-8.4h-9.3c-0.8,1.3-1.8,2.3-3,3c-1.3,0.6-2.7,1-4.1,1
	c-2.1,0-3.9-0.6-5.4-1.8c-1.5-1.2-2.5-2.8-3.1-4.9H441.2L441.2,242.6z M415.8,235.5c0.6-2,1.7-3.6,3.2-4.7c1.5-1.1,3.2-1.7,5.2-1.7
	c2.1,0,3.9,0.6,5.4,1.7c1.5,1.1,2.5,2.7,3.1,4.7H415.8L415.8,235.5z"/>
<path class="st3" d="M465.1,221.6c-2.1-0.3-4.1-0.2-6,0.5c-1.9,0.7-3.6,1.8-5,3.5v-3.4h-8.3v33.9h8.7v-16.6c0-1.4,0.1-2.7,0.4-4
	c0.3-1.3,0.9-2.4,1.8-3.4c1-1,2.2-1.7,3.6-2c1.4-0.3,3-0.3,4.7-0.1V221.6L465.1,221.6z"/>
<path class="st2" d="M497.1,245.5c-0.1-3.6-1.4-6.1-4.1-7.5c-2.6-1.4-6.1-2.5-10.4-3.1c-2.1-0.3-3.8-0.7-4.9-1.1
	c-1.2-0.4-1.8-1.1-1.8-1.9c0-0.7,0.4-1.3,1.3-1.8c0.9-0.6,2.3-0.8,4.3-0.9c1.6,0,2.9,0.3,3.8,0.8c0.9,0.5,1.6,1.2,1.8,2h9
	c-0.6-3.2-2.2-5.8-4.8-7.7c-2.6-1.9-5.9-2.9-9.8-2.9c-3.3,0-6,0.6-8.1,1.6c-2.1,1.1-3.7,2.4-4.8,4c-1.1,1.6-1.6,3.4-1.6,5.2
	c0.1,2.5,0.8,4.4,2.3,5.8c1.5,1.4,3.3,2.4,5.5,3c2.2,0.6,4.3,1.1,6.4,1.4c2.9,0.4,4.8,0.9,5.8,1.4c1,0.5,1.4,1.3,1.3,2.2
	c0,1-0.6,1.7-1.8,2.3c-1.1,0.5-2.6,0.8-4.4,0.8c-1.3,0-2.7-0.3-4.1-0.9c-1.4-0.6-2.4-1.6-3.1-3.1h-8.8c0.6,3.7,2.3,6.6,5.2,8.7
	c2.9,2.1,6.5,3.1,10.9,3.2c4.4-0.1,8-1.1,10.7-3.2C495.7,251.7,497,248.9,497.1,245.5L497.1,245.5z"/>
<polygon class="st2" points="510.2,246.9 500.9,246.9 500.9,256.2 510.2,256.2 510.2,246.9 "/>
<path class="st3" d="M586.7,236.4c0-4.5-1.3-8.1-3.8-10.8c-2.5-2.7-6-4.1-10.6-4.1c-2.2,0-4.1,0.4-5.9,1.3c-1.7,0.8-3.2,2-4.4,3.5
	c-1.2-1.5-2.7-2.7-4.4-3.5c-1.7-0.8-3.6-1.3-5.8-1.3c-1.8,0-3.5,0.4-5,1.1c-1.5,0.7-2.7,1.7-3.8,3v-3.3h-8.4v33.9h8.7v-19.8
	c0-1.9,0.6-3.5,1.8-4.8c1.2-1.2,2.7-1.9,4.7-1.9c1.9,0,3.3,0.5,4.2,1.3c0.9,0.8,1.5,1.8,1.8,2.8c0.3,1,0.4,1.9,0.4,2.6v19.8h8.7
	v-19.8c0-1.9,0.6-3.5,1.8-4.8c1.2-1.2,2.8-1.9,4.7-1.9c1.9,0,3.2,0.5,4.2,1.3c0.9,0.8,1.5,1.8,1.8,2.8c0.3,1,0.4,1.9,0.4,2.6v19.8
	h8.7V236.4L586.7,236.4z"/>
<path class="st3" d="M608.1,221.4c-3.2,0-6,0.8-8.6,2.4c-2.6,1.5-4.6,3.7-6.1,6.3c-1.5,2.7-2.3,5.7-2.3,9.1c0,3.4,0.8,6.4,2.3,9.1
	c1.5,2.7,3.6,4.7,6.1,6.3c2.6,1.5,5.4,2.3,8.6,2.3c3.2,0,6-0.8,8.6-2.3c2.6-1.5,4.6-3.6,6.1-6.3c1.5-2.7,2.3-5.7,2.3-9.1
	c0-3.4-0.8-6.4-2.3-9.1c-1.5-2.7-3.6-4.8-6.1-6.3C614.2,222.3,611.3,221.5,608.1,221.4L608.1,221.4z M608.1,249
	c-2.4,0-4.3-0.9-5.9-2.7c-1.6-1.7-2.4-4.1-2.4-7c0.1-3,0.9-5.4,2.4-7.2c1.6-1.8,3.5-2.7,5.9-2.8c2.4,0,4.3,1,5.9,2.8
	c1.6,1.8,2.4,4.2,2.4,7.2c-0.1,2.9-0.9,5.2-2.4,7C612.5,248.1,610.5,248.9,608.1,249L608.1,249z"/>
<path class="st3" d="M649,221.6c-2.1-0.3-4-0.2-6,0.5c-1.9,0.7-3.6,1.8-5,3.5v-3.4h-8.3v33.9h8.7v-16.6c0-1.4,0.1-2.7,0.4-4
	c0.3-1.3,0.9-2.4,1.8-3.4c1-1,2.2-1.7,3.6-2c1.4-0.3,3-0.3,4.7-0.1V221.6L649,221.6z"/>
<path class="st3" d="M684.5,242.6c0.4-4.5-0.2-8.3-1.6-11.5c-1.5-3.2-3.5-5.6-6.3-7.2c-2.7-1.7-5.8-2.5-9.1-2.5
	c-3.2,0-6.1,0.9-8.7,2.4c-2.6,1.6-4.7,3.7-6.2,6.4c-1.6,2.7-2.3,5.7-2.4,9c0,3.3,0.8,6.3,2.4,8.9c1.6,2.7,3.6,4.8,6.2,6.3
	c2.6,1.6,5.5,2.4,8.7,2.4c4.2-0.1,7.8-1.1,10.6-3.2c2.8-2.1,4.8-4.9,5.8-8.4h-9.3c-0.8,1.3-1.8,2.3-3,3c-1.3,0.6-2.7,1-4.1,1
	c-2.1,0-3.9-0.6-5.4-1.8c-1.5-1.2-2.5-2.8-3.1-4.9H684.5L684.5,242.6z M659,235.5c0.6-2,1.7-3.6,3.2-4.7c1.5-1.1,3.2-1.7,5.2-1.7
	c2.1,0,3.9,0.6,5.4,1.7c1.5,1.1,2.5,2.7,3.1,4.7H659L659,235.5z"/>
<path class="st3" d="M723.3,221.4c-3.2,0-6,0.8-8.6,2.4c-2.6,1.5-4.6,3.7-6.1,6.3c-1.5,2.7-2.3,5.7-2.3,9.1c0,3.4,0.8,6.4,2.3,9.1
	c1.5,2.7,3.6,4.7,6.1,6.3c2.6,1.5,5.4,2.3,8.6,2.3c3.2,0,6-0.8,8.6-2.3c2.6-1.5,4.6-3.6,6.1-6.3c1.5-2.7,2.3-5.7,2.3-9.1
	c0-3.4-0.8-6.4-2.3-9.1c-1.5-2.7-3.6-4.8-6.1-6.3C729.3,222.3,726.5,221.5,723.3,221.4L723.3,221.4z M723.3,249
	c-2.4,0-4.3-0.9-5.9-2.7c-1.6-1.7-2.4-4.1-2.4-7c0.1-3,0.9-5.4,2.4-7.2c1.6-1.8,3.5-2.7,5.9-2.8c2.4,0,4.3,1,5.9,2.8
	c1.6,1.8,2.4,4.2,2.4,7.2c-0.1,2.9-0.9,5.2-2.4,7C727.6,248.1,725.6,248.9,723.3,249L723.3,249z"/>
<path class="st2" d="M754.2,222.4c0-2.3,0.6-3.9,1.7-4.9c1.1-1,2.7-1.3,4.8-1.2v-8.2c-3.2-0.3-6,0.1-8.2,1.2
	c-2.2,1.2-3.9,2.9-5.1,5.1c-1.2,2.3-1.8,4.9-1.8,7.8h-4.1v7.7h4.1v26h8.7v-26h6.1v-7.7H754.2L754.2,222.4z"/>
<path class="st2" d="M781.1,248.2c-2.2,0.2-3.8-0.3-4.9-1.2c-1.1-1-1.6-2.6-1.6-5v-12h6.1v-7.7h-6.1v-8.6h-8.7v8.6h-4.1v7.7h4.1
	v11.9c0,4.7,1.3,8.4,3.9,11c2.6,2.6,6.3,3.7,11.3,3.2V248.2L781.1,248.2z"/>
<path class="st3" d="M817.9,242.6c0.4-4.5-0.2-8.3-1.6-11.5c-1.5-3.2-3.5-5.6-6.3-7.2c-2.7-1.7-5.8-2.5-9.1-2.5
	c-3.2,0-6.1,0.9-8.7,2.4c-2.6,1.6-4.7,3.7-6.2,6.4c-1.6,2.7-2.3,5.7-2.4,9c0,3.3,0.8,6.3,2.4,8.9c1.6,2.7,3.6,4.8,6.2,6.3
	c2.6,1.6,5.5,2.4,8.7,2.4c4.2-0.1,7.8-1.1,10.6-3.2c2.8-2.1,4.8-4.9,5.8-8.4H808c-0.8,1.3-1.8,2.3-3,3c-1.3,0.6-2.7,1-4.1,1
	c-2.1,0-3.9-0.6-5.4-1.8c-1.5-1.2-2.5-2.8-3.1-4.9H817.9L817.9,242.6z M792.5,235.5c0.6-2,1.7-3.6,3.2-4.7c1.5-1.1,3.2-1.7,5.2-1.7
	c2.1,0,3.9,0.6,5.4,1.7c1.5,1.1,2.5,2.7,3.1,4.7H792.5L792.5,235.5z"/>
<path class="st3" d="M852.9,236.4c-0.1-4.5-1.3-8.1-3.6-10.8c-2.4-2.7-5.6-4-9.6-4.1c-1.8,0-3.4,0.4-4.9,1.1c-1.5,0.7-2.7,1.7-3.8,3
	v-3.3h-8.3v33.9h8.7v-19.8c0-1.9,0.6-3.5,1.8-4.8c1.2-1.2,2.8-1.9,4.7-1.9c1.9,0,3.3,0.5,4.2,1.3c0.9,0.8,1.5,1.8,1.8,2.8
	c0.3,1,0.4,1.9,0.4,2.6v19.8h8.7V236.4L852.9,236.4z"/>
<polygon class="st2" points="867.8,246.9 858.4,246.9 858.4,256.2 867.8,256.2 867.8,246.9 "/>
</svg>
